M48
;DRILL file {PCBnew (20100228 RC5)-RC5} date 5/15/2012 1:02:46 PM
;FORMAT={-.-/ absolute / inch / decimal}
R,T
VER,1
FMAT,2
INCH,TZ
TCST,OFF
ICI,OFF
ATC,ON
T1C0.025
T2C0.032
%
M47
G05
M72
T1
X4.869Y-3.076
X5.326Y-3.459
X5.344Y-3.283
T2
X4.680Y-3.380
X4.700Y-2.800
X4.820Y-3.300
X4.850Y-4.850
X4.870Y-3.200
X4.920Y-3.300
X4.970Y-3.200
X5.020Y-3.300
X5.050Y-4.150
X5.050Y-4.450
X5.070Y-3.200
X5.150Y-4.150
X5.150Y-4.450
X5.200Y-2.800
X5.210Y-3.380
X5.250Y-4.150
X5.250Y-4.450
X5.350Y-4.150
X5.350Y-4.450
X5.350Y-4.850
X5.450Y-4.150
X5.450Y-4.450
X5.550Y-4.150
X5.550Y-4.450
X5.650Y-3.100
X5.650Y-3.700
X5.650Y-4.150
X5.650Y-4.450
X5.750Y-3.100
X5.750Y-3.700
X5.750Y-4.150
X5.750Y-4.450
X5.850Y-3.100
X5.850Y-3.700
X5.900Y-4.850
X5.950Y-3.100
X5.950Y-3.700
X6.050Y-3.100
X6.050Y-3.700
X6.150Y-3.100
X6.150Y-3.700
X6.250Y-3.100
X6.250Y-3.700
X6.350Y-3.100
X6.350Y-3.700
X6.400Y-4.850
X6.450Y-3.100
X6.450Y-3.700
X6.550Y-3.100
X6.550Y-3.700
X6.650Y-3.100
X6.650Y-3.700
X6.750Y-3.100
X6.750Y-3.700
X6.850Y-3.100
X6.850Y-3.700
X6.950Y-3.100
X6.950Y-3.700
X7.000Y-4.850
X7.050Y-3.100
X7.050Y-3.700
X7.100Y-2.800
X7.150Y-3.100
X7.150Y-3.700
X7.250Y-3.100
X7.250Y-3.700
X7.350Y-3.100
X7.350Y-3.700
X7.400Y-4.250
X7.400Y-4.350
X7.450Y-3.100
X7.450Y-3.700
X7.500Y-4.250
X7.500Y-4.850
X7.550Y-3.100
X7.550Y-3.700
X7.600Y-2.800
T0
M30
