G04 (created by PCBNEW-RS274X (20100228 RC5)-RC5) date 5/15/2012 2:27:03 PM*
G01*
G70*
G90*
%MOIN*%
G04 Gerber Fmt 3.4, Leading zero omitted, Abs format*
%FSLAX34Y34*%
G04 APERTURE LIST*
%ADD10C,0.006000*%
%ADD11C,0.015000*%
%ADD12R,0.055000X0.055000*%
%ADD13C,0.055000*%
%ADD14R,0.062000X0.090000*%
%ADD15O,0.062000X0.090000*%
%ADD16C,0.060000*%
%ADD17C,0.118100*%
%ADD18C,0.035000*%
%ADD19C,0.008000*%
G04 APERTURE END LIST*
G54D10*
G54D11*
X44000Y-52500D02*
X44000Y-25500D01*
X79000Y-52500D02*
X44000Y-52500D01*
X79000Y-25500D02*
X79000Y-52500D01*
X44000Y-25500D02*
X79000Y-25500D01*
G54D12*
X70000Y-48500D03*
G54D13*
X75000Y-48500D03*
G54D12*
X71000Y-28000D03*
G54D13*
X76000Y-28000D03*
G54D14*
X50500Y-44500D03*
G54D15*
X51500Y-44500D03*
X52500Y-44500D03*
X53500Y-44500D03*
X54500Y-44500D03*
X55500Y-44500D03*
X56500Y-44500D03*
X57500Y-44500D03*
X57500Y-41500D03*
X56500Y-41500D03*
X55500Y-41500D03*
X54500Y-41500D03*
X53500Y-41500D03*
X52500Y-41500D03*
X51500Y-41500D03*
X50500Y-41500D03*
G54D14*
X56500Y-37000D03*
G54D15*
X57500Y-37000D03*
X58500Y-37000D03*
X59500Y-37000D03*
X60500Y-37000D03*
X61500Y-37000D03*
X62500Y-37000D03*
X63500Y-37000D03*
X64500Y-37000D03*
X65500Y-37000D03*
X66500Y-37000D03*
X67500Y-37000D03*
X68500Y-37000D03*
X69500Y-37000D03*
X70500Y-37000D03*
X71500Y-37000D03*
X72500Y-37000D03*
X73500Y-37000D03*
X74500Y-37000D03*
X75500Y-37000D03*
X75500Y-31000D03*
X74500Y-31000D03*
X73500Y-31000D03*
X72500Y-31000D03*
X71500Y-31000D03*
X70500Y-31000D03*
X69500Y-31000D03*
X68500Y-31000D03*
X67500Y-31000D03*
X66500Y-31000D03*
X65500Y-31000D03*
X64500Y-31000D03*
X63500Y-31000D03*
X62500Y-31000D03*
X61500Y-31000D03*
X60500Y-31000D03*
X59500Y-31000D03*
X58500Y-31000D03*
X57500Y-31000D03*
X56500Y-31000D03*
G54D12*
X75000Y-42500D03*
G54D13*
X74000Y-43500D03*
X74000Y-42500D03*
G54D16*
X52000Y-28000D03*
X47000Y-28000D03*
X53500Y-48500D03*
X48500Y-48500D03*
X64000Y-48500D03*
X59000Y-48500D03*
X49700Y-32000D03*
X48700Y-32000D03*
X50700Y-32000D03*
X48200Y-33000D03*
X49200Y-33000D03*
X50200Y-33000D03*
G54D17*
X52100Y-33800D03*
X46800Y-33800D03*
G54D18*
X53264Y-34591D03*
X53438Y-32827D03*
X48693Y-30757D03*
G54D19*
X57953Y-37329D02*
X57953Y-37000D01*
X64124Y-43500D02*
X57953Y-37329D01*
X74000Y-43500D02*
X64124Y-43500D01*
X57500Y-37000D02*
X57953Y-37000D01*
X55500Y-44500D02*
X55953Y-44500D01*
X60809Y-45309D02*
X64000Y-48500D01*
X56433Y-45309D02*
X60809Y-45309D01*
X55953Y-44829D02*
X56433Y-45309D01*
X55953Y-44500D02*
X55953Y-44829D01*
X49022Y-49022D02*
X48500Y-48500D01*
X58478Y-49022D02*
X49022Y-49022D01*
X59000Y-48500D02*
X58478Y-49022D01*
X67500Y-37000D02*
X67500Y-36407D01*
X74585Y-29415D02*
X76000Y-28000D01*
X67085Y-29415D02*
X74585Y-29415D01*
X65953Y-30547D02*
X67085Y-29415D01*
X65953Y-31000D02*
X65953Y-30547D01*
X65500Y-31000D02*
X65953Y-31000D01*
X67500Y-36407D02*
X65500Y-34407D01*
X65500Y-34407D02*
X65500Y-31000D01*
X65316Y-34591D02*
X53264Y-34591D01*
X65500Y-34407D02*
X65316Y-34591D01*
X57500Y-31000D02*
X57047Y-31000D01*
X57047Y-31277D02*
X57047Y-31000D01*
X55497Y-32827D02*
X57047Y-31277D01*
X53438Y-32827D02*
X55497Y-32827D01*
X69060Y-49022D02*
X69582Y-48500D01*
X63829Y-49022D02*
X69060Y-49022D01*
X62561Y-47754D02*
X63829Y-49022D01*
X53754Y-47754D02*
X62561Y-47754D01*
X50953Y-44953D02*
X53754Y-47754D01*
X50953Y-44500D02*
X50953Y-44953D01*
X50500Y-44500D02*
X50953Y-44500D01*
X70000Y-48500D02*
X69582Y-48500D01*
X54500Y-44500D02*
X53500Y-44500D01*
X64500Y-31000D02*
X64047Y-31000D01*
X64047Y-30671D02*
X64047Y-31000D01*
X63781Y-30405D02*
X64047Y-30671D01*
X48700Y-30405D02*
X63781Y-30405D01*
X47000Y-28705D02*
X48700Y-30405D01*
X47000Y-28000D02*
X47000Y-28705D01*
X48700Y-30750D02*
X48700Y-30405D01*
X48693Y-30757D02*
X48700Y-30750D01*
M02*
